<svg id="icon_-_24x24_-_ic24-upload" data-name="icon - 24x24 - ic24-upload" xmlns="http://www.w3.org/2000/svg" width="20" height="20" viewBox="0 0 20 20">
  <path id="Icon" d="M17,20H3A3,3,0,0,1,.005,17.177L0,17V15a1,1,0,0,1,1.993-.117L2,15v2a1,1,0,0,0,.884.994L3,18H17a1,1,0,0,0,.994-.884L18,17V15a1,1,0,0,1,1.993-.117L20,15v2a3,3,0,0,1-2.823,3Zm-7-6a1,1,0,0,1-1-1V3.414L7.707,4.707A1,1,0,0,1,6.293,3.293l3-3A1.027,1.027,0,0,1,9.4.2L9.516.125,9.629.071,9.734.036,9.851.011,9.91,0,10,0l.076,0L10.2.02l.112.03.111.044.1.052.1.074.082.073,3,3a1,1,0,1,1-1.414,1.414L11,3.414V13A1,1,0,0,1,10,14Z" fill="#fff"/>
</svg>
