<svg width="90" height="90" viewBox="0 0 90 90" fill="none" xmlns="http://www.w3.org/2000/svg">
<mask id="mask0_963_572" style="mask-type:luminance" maskUnits="userSpaceOnUse" x="27" y="26" width="37" height="37">
<path d="M64 26H27V63H64V26Z" fill="white"/>
</mask>
<g mask="url(#mask0_963_572)">
<path d="M33.796 62.9948C31.9365 62.9948 30.0821 62.9948 28.2227 62.9948C27.2699 62.9948 27.0035 62.7389 26.9984 61.7869C26.9932 58.1222 26.9984 54.4524 26.9984 50.7877C26.9984 50.5779 27.0189 50.3629 27.0598 50.1531C27.2186 49.3853 27.7104 49.1653 28.361 49.6003C29.0832 50.0814 29.8158 50.4602 30.7276 50.4295C32.3156 50.3783 33.5347 49.283 33.8011 47.6298C34.0418 46.1506 33.1761 44.7277 31.747 44.1954C30.7788 43.832 29.867 43.9293 28.991 44.4462C28.8425 44.5332 28.7144 44.6714 28.5556 44.7072C28.1868 44.7994 27.7309 45.0041 27.4492 44.871C27.2033 44.7584 27.0291 44.2466 27.024 43.9037C26.9881 42.3682 27.0394 40.8327 27.0342 39.2972C27.0342 37.2704 27.0086 35.2487 26.9984 33.2218C26.9984 32.9045 27.0086 32.582 27.0394 32.2647C27.0906 31.6761 27.3979 31.4304 28.0126 31.4304C30.661 31.4458 33.3042 31.4304 35.9525 31.4202C36.1011 31.4202 36.2497 31.4202 36.4033 31.4202C37.6583 31.3946 37.7659 31.3076 37.9811 30.0997C38.5087 27.1669 41.4541 25.3141 44.2818 26.2303C46.213 26.8547 47.3245 28.2725 47.6678 30.2737C47.847 31.3281 47.9393 31.4304 49.0252 31.4304C51.8016 31.4407 54.5729 31.4356 57.3493 31.4458C58.3943 31.4458 58.5839 31.6454 58.5839 32.6742C58.5839 35.4688 58.5736 38.2633 58.5839 41.0528C58.5839 42.0969 58.7017 42.2146 59.7313 42.3375C62.1594 42.6292 63.9881 44.6919 63.9984 47.1435C64.0086 49.6668 62.2772 51.6886 59.8338 52.011C58.7222 52.1594 58.589 52.2976 58.589 53.4288C58.5839 56.2029 58.589 58.9719 58.589 61.746C58.589 62.6775 58.3175 62.9692 57.3801 62.9744C53.6253 62.9846 49.8653 62.9948 46.1105 62.9641C45.7827 62.9641 45.3063 62.7543 45.168 62.4932C45.0348 62.2424 45.1628 61.7511 45.337 61.4696C46.0029 60.3947 46.3257 59.3148 45.7417 58.0915C45.1475 56.8529 43.8771 56.0289 42.6938 56.1517C41.1212 56.3104 39.9532 57.3391 39.6305 58.8081C39.4154 59.7857 39.7432 60.6097 40.2657 61.3928C40.486 61.7255 40.8804 62.0991 40.5218 62.4625C40.2452 62.744 39.7637 62.9539 39.3693 62.9641C37.5149 63.0153 35.6554 62.9846 33.8011 62.9846L33.796 62.9948ZM56.9651 55.8395C56.9651 54.4115 56.9651 52.9835 56.9651 51.5504C56.9651 50.3322 57.2315 50.1173 58.4302 50.3527C60.3921 50.7366 62.1645 49.4365 62.354 47.4813C62.5589 45.3265 60.7251 43.6682 58.5736 44.0572C57.1854 44.308 56.9651 44.1238 56.9651 42.6958C56.9651 39.9217 56.9651 37.1527 56.9703 34.3786C56.9703 33.1655 56.8627 33.0632 55.6589 33.0683C52.8005 33.0734 49.937 33.0888 47.0787 33.0785C45.8954 33.0785 45.7263 32.838 45.9312 31.7017C45.9568 31.5533 45.9671 31.4048 45.9927 31.2564C46.3257 29.0607 44.2152 27.1874 42.0688 27.7811C40.2811 28.2725 39.3027 29.9052 39.7125 31.6915C39.943 32.6844 39.6766 33.0222 38.6367 33.058C38.4882 33.0632 38.3396 33.0632 38.186 33.0632C35.43 33.0632 32.6793 33.0683 29.9233 33.0683C28.7503 33.0683 28.6376 33.1706 28.6325 34.3223C28.6325 36.6255 28.6376 38.9287 28.6325 41.2319C28.6325 42.5217 28.6529 42.5217 29.9182 42.3631C32.0184 42.102 33.6218 42.9466 34.7539 44.6919C35.7579 46.2478 35.6811 48.4436 34.6002 49.9381C33.3657 51.6425 31.6906 52.2618 29.6211 51.9905C28.7144 51.8728 28.6273 51.9905 28.6273 52.9118C28.6222 55.4095 28.6222 57.9021 28.6273 60.3999C28.6273 61.1471 28.7605 61.3314 29.5187 61.3365C32.0338 61.3467 34.5541 61.3365 37.0693 61.2853C38.0477 61.2649 38.1399 61.142 37.9401 60.2156C37.3407 57.4364 39.9532 54.2886 43.1343 54.5548C45.9978 54.7954 48.1544 57.4415 47.6217 60.2566C47.4577 61.1164 47.6114 61.3519 48.5079 61.3519C51.0486 61.3519 53.5843 61.3058 56.125 61.2956C56.7244 61.2956 56.9651 61.0345 56.96 60.4408C56.9395 58.9053 56.9549 57.3698 56.9549 55.8344L56.9651 55.8395Z" fill="white"/>
</g>
</svg>
