<?xml version="1.0" encoding="utf-8"?>
<!-- Generator: Adobe Illustrator 27.4.0, SVG Export Plug-In . SVG Version: 6.00 Build 0)  -->
<svg version="1.1" id="Camada_1" xmlns="http://www.w3.org/2000/svg" xmlns:xlink="http://www.w3.org/1999/xlink" x="0px" y="0px"
	 viewBox="0 0 94 94" style="enable-background:new 0 0 94 94;" xml:space="preserve">
<style type="text/css">
	.st0{fill:#FFFFFF;}
</style>
<g>
	<path class="st0" d="M36.9,74c-2.7,0-5.4,0-8,0c-0.3,0-0.7,0.5-0.7,0.9C28,75.7,28,76.5,28,77.2c0,0.8-0.4,1.2-1.1,1.2
		c-1.1,0-2.2,0-3.3,0c-0.7,0-1.1-0.3-1.1-1.1c0-0.8-0.1-1.6-0.1-2.4c0-0.7-0.3-0.9-0.9-1.2c-2.4-0.8-3.1-1.8-3.1-4.3
		c0-12.1,0-24.2,0-36.3c0-2.3,1.3-3.7,3.7-3.9c1.2-0.1,2.5-0.1,3.7-0.1c1.3,0,1.2,0,1.2-1.2c0-3.4,0-6.8,0-10.2c0-1.3,0.5-1.8,1.7-2
		c0.7-0.1,1.4-0.1,2-0.2c2.2,0,4.4,0,6.7,0c2.5,0,3,0.5,3,3c0,3.2,0,6.3,0,9.5c0,0.9,0.2,1.2,1.2,1.2c1.3-0.1,2.5,0,3.8,0.1
		c2,0.2,3.5,1.5,3.7,3.5c0.2,2.1,0.2,4.3,0.2,6.4c0,2.5,0,5,0,7.5c0,0.7,0.2,1,1,1c2.2,0,2.2,0.1,2.2-2.2c0-0.4,0-0.9,0-1.3
		c0.1-1.5,1-2.4,2.5-2.5c3,0,5.9,0,8.9,0c1.4,0,2.2,0.9,2.3,2.3c0,0.9,0.1,1.7,0.1,2.6c0,0.8,0.3,1.2,1.1,1.1c2.9,0,5.8,0,8.7,0
		c0.5,0,1.1,0,1.6,0.1c2.5,0.3,3.8,1.7,3.8,4.2c0,3.2,0,6.5,0,9.7c0,4,0,8.1,0,12.1c0,0.7-0.1,1.4-0.2,2.1c-0.3,1.4-1.2,2.2-2.6,2.4
		c-0.6,0.1-1.3,0.2-1.9,0.2c-11.6,0-23.3,0-34.9,0C38.7,78.5,37.3,77.3,36.9,74z M71.2,50.3c-0.4,0-0.7-0.1-1.1-0.1
		c-7.2,0-14.5-0.1-21.7-0.1c-0.9,0-1.2,0.3-1.2,1.2c0,7.9,0,15.8,0,23.6c0,1.4,0,1.4,1.4,1.4c7.2,0,14.4,0,21.6,0
		c0.7,0,0.9-0.1,0.9-0.8C71.2,67.1,71.2,58.8,71.2,50.3z M37,71.6c0-0.5,0-0.9,0-1.3c0-6,0-12.1,0-18.1c0-1.3,0.5-2.4,1.4-3.4
		c0.4-0.4,0.7-1.1,0.7-1.7c0-2.5-0.1-5-0.1-7.6c0-0.8,0.1-1.6,0.1-2.4c0-0.7,0.5-1.1,1.1-1c0.4,0.1,0.9,0.5,1.2,0.9
		c0.2,0.3,0.2,0.9,0.2,1.3c0,2.8,0,5.5,0,8.3c0,0.8,0.3,1.1,1.1,1.1c1.1,0,2.3,0,3.4,0.1c0.6,0,0.8-0.2,0.8-0.8c0-4.5,0-8.9,0-13.4
		c0-1-0.5-1.7-1.5-1.9c-0.5-0.1-0.9-0.1-1.4-0.1c-6.8,0-13.5,0-20.3,0c-2.3,0-2.8,0.6-2.9,2.8c0,3.4,0,6.9,0,10.3
		c0,8.1,0,16.2,0,24.4c0,1.7,0.5,2.4,2.1,2.4C27.4,71.6,32.1,71.6,37,71.6z M73.7,50.2c0,0.6,0,1,0,1.5c0,7.5,0,15,0,22.5
		c0,2.2-0.4,2.1,2.2,2.1c3,0,3.4-0.5,3.4-3.5c0-6.3,0-12.6,0-18.9c0-0.7-0.1-1.5-0.2-2.2c-0.1-0.8-0.7-1.4-1.5-1.4
		C76.4,50.2,75.1,50.2,73.7,50.2z M44.7,50.2c-1.2,0-2.2,0-3.3,0c-1.4,0-2,0.6-2,2c0,5.6,0,11.2,0,16.8c0,1.8,0,3.5,0,5.3
		c0,1.3,0.5,1.7,1.7,1.8c0.8,0.1,1.7,0,2.5,0.1c0.9,0.1,1-0.2,1-1c0-7.2,0-14.4,0-21.6C44.7,52.6,44.7,51.5,44.7,50.2z M29.5,29.1
		c2.8,0,5.4,0,8.1,0c0.2,0,0.5-0.5,0.5-0.8c0-3.2,0-6.4,0-9.6c0-0.6-0.2-1-0.9-1c-2.3,0-4.6,0-6.9,0c-0.6,0-0.9,0.2-0.9,0.9
		c0,1.7,0,3.3,0,5C29.5,25.4,29.5,27.2,29.5,29.1z M59.5,47.6C59.5,47.6,59.5,47.6,59.5,47.6c0.6,0,1.3,0,1.9,0c2.4,0,2.4,0,2.4-2.4
		c0-0.8-0.3-1.1-1.1-1.1c-1.8,0-3.6,0-5.4,0c-2.8,0-2.4-0.4-2.4,2.4c0,0.8,0.3,1,1,1C57.1,47.6,58.3,47.6,59.5,47.6z M25.4,76.5
		c0.1-0.8,0.3-1.4,0.3-2c0-0.1-0.2-0.4-0.4-0.4c-0.2,0-0.5,0.1-0.5,0.2C24.7,75,24.6,75.7,25.4,76.5z"/>
	<path class="st0" d="M26.1,51.7c0,3.9,0,7.8,0,11.7c0,0.8,0,1.6,0,2.5c0,0.8,0.5,1.3,1.3,1.3c0.8,0,1.1-0.5,1.1-1.2
		c0-1.1,0.1-2.1,0.1-3.2c0-7.8,0-15.7,0-23.5c0-0.7,0-1.5-0.2-2.1c-0.1-0.4-0.6-0.8-1-0.9c-0.5-0.1-1.1,0.1-1.2,0.8
		c-0.1,0.5-0.1,1-0.1,1.5C26.1,42.9,26.1,47.3,26.1,51.7z M35,51.8c0-4.5,0-8.9,0-13.4c0-0.5,0-1-0.2-1.4c-0.2-0.4-0.7-0.8-1.1-0.8
		c-0.4,0-0.9,0.5-1.1,0.9c-0.2,0.5-0.2,1.1-0.2,1.7c0,8.6,0,17.3,0,25.9c0,0.5,0,1,0.2,1.4c0.2,0.4,0.6,0.8,1,0.9
		c0.9,0.2,1.4-0.3,1.4-1.4C35,61,35,56.4,35,51.8z"/>
	<path class="st0" d="M26.1,51.7c0-4.4,0-8.8,0-13.2c0-0.5,0.1-1,0.1-1.5c0.1-0.7,0.6-1,1.2-0.8c0.4,0.1,0.9,0.5,1,0.9
		c0.2,0.7,0.2,1.4,0.2,2.1c0,7.8,0,15.7,0,23.5c0,1.1-0.1,2.1-0.1,3.2c0,0.8-0.4,1.3-1.1,1.2c-0.8,0-1.3-0.5-1.3-1.3
		c0-0.8,0-1.6,0-2.5C26.1,59.5,26.1,55.6,26.1,51.7z"/>
	<path class="st0" d="M33.6,67c-0.4-0.1-0.8-0.5-1-0.9c-0.2-0.4-0.2-0.9-0.2-1.4c0-8.6,0-17.3,0-25.9c0-0.6,0-1.2,0.2-1.7
		c0.2-0.4,0.7-0.9,1.1-0.9c0.3,0,0.9,0.4,1.1,0.8c0.2,0.4,0.2,0.9,0.2,1.4c0,4.5,0,8.9,0,13.4"/>
</g>
</svg>
